<?xml version="1.0" standalone="no"?>
<!DOCTYPE svg PUBLIC "-//W3C//DTD SVG 20010904//EN"
 "http://www.w3.org/TR/2001/REC-SVG-20010904/DTD/svg10.dtd">
<svg version="1.0" xmlns="http://www.w3.org/2000/svg"
 width="500.000000pt" height="500.000000pt" viewBox="0 0 500.000000 500.000000"
 preserveAspectRatio="xMidYMid meet">
<metadata>
Created by potrace 1.11, written by Peter Selinger 2001-2013
</metadata>
<g transform="translate(0.000000,500.000000) scale(0.100000,-0.100000)"
fill="#000000" stroke="none">
<path d="M2500 4365 c-30 -19 -54 -39 -52 -45 1 -6 -2 -9 -8 -5 -9 5 -74 -27
-90 -44 -3 -4 -21 -14 -40 -23 -19 -10 -69 -39 -110 -64 -41 -25 -113 -69
-160 -97 -47 -28 -87 -54 -90 -58 -3 -3 -15 -9 -28 -13 -12 -4 -19 -12 -16
-18 4 -6 2 -8 -4 -4 -14 9 -183 -94 -175 -107 3 -6 1 -7 -6 -3 -11 7 -158 -76
-173 -98 -5 -6 -33 -76 -64 -156 -38 -99 -65 -152 -83 -167 -14 -13 -29 -23
-33 -23 -5 0 -71 -37 -149 -81 l-140 -82 -51 -106 c-28 -58 -59 -122 -69 -141
-10 -20 -59 -123 -109 -230 -79 -171 -89 -198 -79 -217 7 -12 17 -20 22 -16 6
3 7 1 3 -5 -9 -14 105 -242 118 -235 5 3 6 1 2 -5 -6 -10 86 -198 166 -340 30
-54 60 -78 80 -66 6 4 8 3 5 -3 -8 -12 61 -46 75 -37 6 4 8 3 5 -3 -8 -12 61
-46 75 -37 6 4 8 3 5 -3 -4 -6 12 -18 34 -28 25 -12 45 -30 54 -49 7 -17 43
-95 78 -173 35 -79 67 -140 71 -136 4 4 5 1 2 -7 -8 -22 257 -173 287 -165 16
4 18 4 8 -3 -16 -12 3 -27 21 -16 6 4 8 3 5 -3 -5 -9 102 -83 119 -83 2 0 26
-14 54 -31 27 -17 54 -28 60 -24 6 4 9 1 8 -7 -2 -7 5 -12 15 -12 10 1 16 -1
13 -4 -3 -3 13 -16 36 -30 24 -13 73 -42 110 -64 38 -23 72 -37 79 -32 8 4 9
3 5 -5 -4 -6 0 -14 11 -18 10 -4 39 -20 65 -36 26 -15 53 -25 59 -21 8 4 9 3
5 -4 -4 -7 7 -18 28 -29 34 -16 37 -15 70 2 19 10 32 23 29 28 -3 6 -1 7 5 3
11 -7 210 106 223 126 3 5 8 8 10 7 3 -3 63 29 149 80 115 69 149 88 172 100
15 8 25 19 21 24 -3 6 -1 7 6 3 11 -7 143 68 190 108 13 12 21 15 16 7 -7 -12
40 13 55 29 3 3 18 11 33 18 17 7 25 17 21 24 -4 7 -3 8 4 4 27 -16 61 28 121
157 34 73 61 138 61 144 0 5 11 22 24 36 13 14 21 29 17 33 -3 4 -1 4 6 0 6
-3 29 3 50 15 105 59 130 74 152 93 13 12 21 15 16 7 -4 -7 16 2 45 20 52 34
54 36 136 217 46 101 81 188 78 194 -4 6 -2 8 4 4 6 -3 14 3 17 15 4 11 29 67
56 125 28 57 47 110 43 116 -4 6 -3 8 3 5 32 -20 12 47 -58 193 -44 89 -79
165 -79 169 0 4 -5 12 -12 19 -6 6 -13 18 -14 25 -3 25 -41 86 -49 79 -5 -4
-5 -2 -1 5 4 7 -14 57 -40 112 -43 92 -50 101 -95 126 -27 14 -54 23 -61 19
-6 -4 -8 -3 -4 4 8 13 -161 105 -177 95 -5 -3 -7 -1 -4 4 4 6 0 13 -8 17 -8 3
-25 26 -37 50 -12 25 -26 42 -31 39 -6 -4 -7 -1 -2 6 4 7 2 23 -3 34 -6 12
-30 63 -52 112 -36 81 -86 145 -111 145 -20 0 -25 2 -44 19 -19 17 -142 91
-151 91 -2 0 -32 17 -66 38 -117 70 -161 94 -154 84 3 -6 1 -14 -5 -18 -7 -4
-9 -3 -6 3 4 6 -1 17 -11 26 -30 26 -154 98 -146 85 4 -7 -4 -4 -17 8 -25 22
-285 174 -297 174 -4 0 0 -5 8 -11 13 -9 13 -10 0 -6 -8 2 -15 9 -15 16 0 16
-43 40 -70 40 -11 0 -45 -16 -75 -34z m-420 -321 c0 -2 -9 0 -20 6 -11 6 -20
13 -20 16 0 2 9 0 20 -6 11 -6 20 -13 20 -16z m450 -56 c28 -48 31 -59 27
-123 -2 -38 -7 -78 -11 -87 -7 -16 -1 -18 67 -18 90 0 282 -31 369 -61 35 -11
99 -41 143 -66 283 -161 477 -378 560 -627 14 -43 25 -80 23 -82 -2 -2 -41 40
-85 94 -186 221 -328 339 -537 441 -150 74 -139 76 -220 -24 -115 -142 -229
-305 -321 -461 -123 -206 -269 -534 -282 -631 l-6 -48 73 78 c146 156 349 309
539 406 91 46 228 98 236 89 2 -2 -24 -24 -58 -50 -69 -51 -306 -266 -351
-319 -16 -19 -38 -44 -49 -57 -19 -20 -13 -19 54 12 156 72 384 129 640 162
149 18 727 32 754 17 14 -8 8 -11 -30 -16 -214 -30 -866 -223 -1225 -364 -235
-92 -530 -253 -621 -339 -31 -30 -41 -30 -35 -1 14 64 17 167 5 167 -24 0
-159 -119 -321 -283 -93 -93 -168 -164 -168 -156 0 24 55 196 110 349 78 212
133 342 198 460 32 58 76 141 97 184 22 43 70 122 107 175 38 53 96 137 130
186 103 151 345 375 558 516 l25 17 -45 12 c-141 38 -448 54 -586 29 -217 -38
-464 -173 -575 -316 -98 -124 -190 -301 -209 -404 -6 -28 -10 -89 -10 -135 0
-70 3 -84 18 -88 9 -3 30 -16 46 -29 l28 -23 -41 -27 c-35 -23 -41 -33 -41
-61 0 -85 76 -263 163 -380 l50 -68 -17 -52 c-10 -28 -24 -60 -32 -71 -15 -20
-15 -20 -34 5 -10 13 -45 79 -79 146 l-60 122 -55 6 c-31 4 -58 10 -60 14 -2
4 16 34 40 66 29 37 43 65 39 75 -25 65 -38 159 -38 276 0 139 13 220 56 338
l25 68 -39 57 -39 57 63 3 c59 3 64 5 81 34 24 40 120 151 223 259 l83 86 0
67 c0 36 2 66 4 66 2 0 28 -11 58 -25 l55 -25 124 54 c68 29 145 61 172 70 28
11 57 31 72 50 27 36 100 186 110 229 4 15 11 27 16 27 5 0 22 -24 39 -52z
m-860 -172 c-7 -7 -13 -7 -20 0 -6 6 -3 10 10 10 13 0 16 -4 10 -10z m615
-398 c-20 -197 -81 -391 -210 -663 -64 -135 -198 -370 -203 -355 -6 16 16 189
34 280 24 120 99 331 162 459 59 119 198 341 214 341 5 0 6 -28 3 -62z m-1013
-72 c10 6 11 4 0 -7 -10 -11 -15 -10 -30 6 -15 17 -15 18 0 6 9 -7 23 -9 30
-5z m569 -341 c21 -204 -8 -490 -78 -767 -10 -38 -20 -68 -24 -68 -10 0 -39
168 -50 290 -11 124 -6 246 17 407 15 102 65 297 86 337 11 19 13 16 25 -34 7
-30 18 -104 24 -165z m1804 -761 c-27 -7 -120 -32 -205 -55 -304 -80 -441
-130 -567 -206 -100 -60 -157 -106 -199 -161 -38 -51 -35 -71 16 -92 38 -16
203 -8 317 16 142 28 411 156 527 249 38 30 70 55 72 55 5 0 -12 -44 -32 -83
-66 -128 -273 -317 -439 -399 -222 -111 -327 -133 -575 -124 -171 6 -258 20
-363 57 -109 38 -257 119 -257 140 0 10 139 124 220 181 157 111 408 230 617
293 235 72 654 140 873 143 l45 0 -50 -14z m-335 -938 c0 -2 -7 -7 -16 -10 -8
-3 -12 -2 -9 4 6 10 25 14 25 6z m-560 -370 c0 -2 -7 -7 -16 -10 -8 -3 -12 -2
-9 4 6 10 25 14 25 6z"/>
</g>
</svg>
